# xmcd CD database file
#
# Track frame offsets:
#	150
#	11624
#	25750
#	41230
#	61231
#	80213
#	88508
#	103632
#	128205
#	136726
#	147564
#	155765
#	171026
#	194575
#	205449
#	215861
#	226521
#	235421
#
# Disc length: 3318 seconds
#
# Revision: 0
# Processed by: cddbd v1.5.1PL0 Copyright (c) Steve Scherf et al.
# Submitted via: CDex 1.51
#
DISCID=060cf412
DTITLE=Iconoclaust - Blood Is Red
DYEAR=1900
DGENRE=Jazz
TTITLE0=Sugar Shock
TTITLE1=Jubileum
TTITLE2=Bob
TTITLE3=Carbonic Machines
TTITLE4=Caught In The Dark
TTITLE5=Signalization
TTITLE6=La Sagrada Familia
TTITLE7=Blood Is Red, Buises Are Blue
TTITLE8=The Raven Is Waiting
TTITLE9=The Slenk
TTITLE10=Drive Shaft
TTITLE11=No Soap Radio
TTITLE12=Doomsday Report
TTITLE13=Red Stripe
TTITLE14=Flasher 491
TTITLE15=Blue Jay
TTITLE16=Jamais
TTITLE17=Tango Ritzo
EXTD=
EXTT0=
EXTT1=
EXTT2=
EXTT3=
EXTT4=
EXTT5=
EXTT6=
EXTT7=
EXTT8=
EXTT9=
EXTT10=
EXTT11=
EXTT12=
EXTT13=
EXTT14=
EXTT15=
EXTT16=
EXTT17=
PLAYORDER=
